<svg width="49" height="48" viewBox="0 0 49 48" fill="none" xmlns="http://www.w3.org/2000/svg">
<g id="Frame 1171275053">
<g id="Group">
<path id="Vector" d="M11.418 25.5117C11.418 32.698 17.2685 38.5947 24.5009 38.5947C31.6873 38.5947 37.5839 32.7441 37.5839 25.5117C37.5839 18.279 31.6874 12.4287 24.5009 12.4287C17.3145 12.4287 11.418 18.3253 11.418 25.5117ZM30.9964 17.2657L29.4762 18.7859C28.9694 19.2927 28.9694 20.0758 29.4762 20.5366C29.7066 20.767 30.0289 20.9051 30.3515 20.9051C30.6742 20.9051 30.9964 20.767 31.2269 20.5366L32.7471 19.0164C33.8987 20.4907 34.6819 22.2873 34.9122 24.268H32.7471C32.0562 24.268 31.5032 24.8207 31.5032 25.5119C31.5032 26.2027 32.0559 26.7557 32.7471 26.7557H34.9122C34.6818 28.7365 33.8987 30.5334 32.7471 32.0074L31.2269 30.4872C30.7201 29.9804 29.937 29.9804 29.4762 30.4872C28.9695 30.9939 28.9695 31.777 29.4762 32.2378L30.9965 33.758C29.5222 34.9097 27.7255 35.6928 25.7448 35.9231V33.758C25.7448 33.0671 25.1921 32.5141 24.5009 32.5141C23.8101 32.5141 23.2571 33.0668 23.2571 33.758V35.9231C21.2764 35.6927 19.4794 34.9097 18.0054 33.758L19.5257 32.2378C20.0324 31.731 20.0324 30.9479 19.5257 30.4872C19.0189 29.9804 18.2358 29.9804 17.775 30.4872L16.2548 32.0074C15.1032 30.5331 14.32 28.7365 14.0897 26.7557H16.2548C16.9457 26.7557 17.4987 26.203 17.4987 25.5119C17.4987 24.821 16.946 24.268 16.2548 24.268H14.0897C14.3201 22.2873 15.1032 20.4903 16.2548 19.0164L17.775 20.5366C18.0054 20.767 18.3277 20.9051 18.6504 20.9051C18.973 20.9051 19.2953 20.767 19.5257 20.5366C20.0325 20.0298 20.0325 19.2467 19.5257 18.7859L18.0055 17.2657C19.8021 15.8377 22.0595 14.9624 24.501 14.9624C26.9426 14.9624 29.1999 15.8377 30.9965 17.2657H30.9964Z" fill="#101010"/>
<path id="Vector_2" d="M40.7625 13.2577C40.348 12.705 39.5649 12.6128 39.0119 13.0273C38.4592 13.4418 38.367 14.2249 38.7815 14.7779C41.1308 17.9103 42.3747 21.5957 42.3747 25.5115C42.3747 35.3698 34.359 43.3854 24.5008 43.3854C14.6425 43.3854 6.62685 35.3697 6.62685 25.5115C6.62685 16.206 13.8132 8.55887 22.8884 7.72967L22.0594 8.55871C21.5526 9.06546 21.5526 9.84858 22.0594 10.3093C22.2898 10.5397 22.6121 10.6779 22.9348 10.6779C23.2574 10.6779 23.5797 10.5397 23.8101 10.3093L26.8506 7.26884C27.3574 6.76208 27.3574 5.97896 26.8506 5.51821L23.8101 2.47772C23.3034 1.97097 22.5202 1.97097 22.0595 2.47772C21.5527 2.98447 21.5527 3.76759 22.0595 4.22834L23.0271 5.19591C12.5238 5.93305 4.13965 14.7778 4.13965 25.5114C4.13965 36.7517 13.2609 45.8729 24.5012 45.8729C35.7415 45.8729 44.8627 36.7517 44.8627 25.5114C44.8627 21.0429 43.4347 16.8048 40.7628 13.2576L40.7625 13.2577Z" fill="#101010"/>
<path id="Vector_3" d="M24.5011 26.7552H28.3706C29.0615 26.7552 29.6145 26.2025 29.6145 25.5113C29.6145 24.8204 29.0618 24.2674 28.3706 24.2674H25.7446V18.7395C25.7446 18.0486 25.1919 17.4956 24.5007 17.4956C23.8099 17.4956 23.2568 18.0483 23.2568 18.7395V25.5113C23.2572 26.2022 23.8102 26.7552 24.5011 26.7552Z" fill="#101010"/>
</g>
</g>
</svg>
