<svg width="49" height="48" viewBox="0 0 49 48" fill="none" xmlns="http://www.w3.org/2000/svg">
<g id="noun-mosque-1394939 1">
<g id="Group">
<path id="Vector" fill-rule="evenodd" clip-rule="evenodd" d="M24.21 3.00116C23.8603 3.03141 23.5296 3.22259 23.3389 3.5049L20.6716 7.46573C19.1744 9.69006 17.3437 10.7914 14.4713 12.2952C13.0354 13.0471 11.6311 13.9185 10.5524 15.2137C9.47361 16.5089 8.79245 18.2256 8.79245 20.3906C8.79245 21.623 9.08054 22.8023 9.60883 23.8997H7.44978C6.84182 23.8997 6.28862 24.4294 6.28862 25.0115V28.5492C6.28862 29.1313 6.84186 29.661 7.44978 29.661H8.95579V43.7764H7.17774C6.56415 43.7678 6 44.3006 6 44.8881C6 45.4756 6.56411 46.0084 7.17774 45.9999H41.8223C42.4359 46.0084 43 45.4756 43 44.8881C43 44.3006 42.4359 43.7678 41.8223 43.7764H40.0442V29.661H41.5502C42.1582 29.661 42.7114 29.1313 42.7114 28.5492V25.0115C42.7114 24.4294 42.1581 23.8997 41.5502 23.8997H39.0283C39.555 22.8016 39.8447 21.6211 39.8447 20.3906C39.8447 18.2259 39.1631 16.5088 38.0848 15.2137C37.0064 13.9184 35.6014 13.0471 34.1658 12.2952C31.295 10.7914 29.4659 9.68966 27.9655 7.46573L25.2983 3.5049C25.0866 3.19506 24.7052 2.99883 24.3185 3.00116C24.2823 2.99961 24.2466 2.99961 24.21 3.00116ZM24.319 6.16284L26.0065 8.68191C28.0364 11.6935 30.3885 12.8518 33.0413 14.2413C34.3679 14.9362 35.4981 15.6757 36.271 16.6041C37.0435 17.5321 37.5227 18.6481 37.5227 20.3912C37.5227 21.6305 37.1263 22.8044 36.3795 23.9003H12.2579C11.5091 22.8028 11.1147 21.6282 11.1147 20.3912C11.1147 18.648 11.5935 17.532 12.3664 16.6041C13.1394 15.6761 14.2692 14.9362 15.5961 14.2413C18.2497 12.8518 20.6038 11.6943 22.6309 8.68191L24.319 6.16284ZM8.61133 26.1238H40.3893V27.4379H8.61133V26.1238ZM11.2786 29.6616H37.722V43.7769H35.0185V39.6339C35.0185 36.9543 32.7126 34.7524 29.9203 34.7524C27.1235 34.7524 24.8401 36.9566 24.8401 39.6339V43.7769H24.1606V39.6339C24.1606 36.9562 21.8587 34.7524 19.0624 34.7524C16.2701 34.7524 13.9822 36.9543 13.9822 39.6339V43.7769H11.2788L11.2786 29.6616ZM19.0622 36.9753C20.5967 36.9753 21.838 38.1639 21.838 39.6331V43.7761H16.3039V39.6331C16.3039 38.1658 17.5352 36.9753 19.0622 36.9753ZM29.9201 36.9753C31.4474 36.9753 32.6959 38.1658 32.6959 39.6331V43.7761H27.1618V39.6331C27.1618 38.1638 28.3855 36.9753 29.9201 36.9753Z" fill="#101010"/>
</g>
</g>
</svg>
