<svg width="49" height="48" viewBox="0 0 49 48" fill="none" xmlns="http://www.w3.org/2000/svg">
<g id="noun-like-1388386 1">
<g id="Group">
<path id="Vector" d="M19.2415 42.2306L19.2954 42.1808L19.3415 42.1309C19.3535 42.0967 19.3677 42.0634 19.3838 42.031V40.7831V39.8845V39.6541C19.353 37.1467 19.353 34.6007 19.353 32.1394C19.353 30.0849 19.353 27.3739 19.3838 24.6246C19.3838 24.4288 19.3838 23.1961 19.4146 22.3591L19.4491 20.8692H8.62788C7.9877 20.8333 7.35156 20.9919 6.80326 21.3243C6.25496 21.6567 5.81995 22.1475 5.55588 22.7316C5.50204 22.843 5.45999 22.9505 5.42141 23.0426L5.37909 23.1385L5.2832 23.4074V39.9194L5.47526 40.2575C5.50606 40.3073 5.5366 40.3726 5.57115 40.4418C5.70642 40.7158 5.87275 40.9734 6.06669 41.2097C6.64258 41.8788 7.48797 42.2548 8.37055 42.235H19.1801L19.2415 42.2306ZM16.4499 23.8219V24.4093V24.5936V24.6244C16.4191 27.3777 16.4191 30.0849 16.4191 32.1391C16.4191 34.4968 16.4191 36.9354 16.4459 39.3467H10.3787H8.26315C8.24011 39.3121 8.20556 39.2508 8.17475 39.1892V23.9677C8.23234 23.8447 8.25913 23.7872 8.5894 23.7872L16.4497 23.7874V23.8335L16.4499 23.8219Z" fill="#101010"/>
<path id="Vector_2" d="M21.3628 41.9994C20.07 42.017 18.8002 41.6545 17.7092 40.956L17 40.5026V39.6558C17.0278 35.6426 17.0397 31.2927 17.0397 25.923V22.3113L17.04 21.7052L17.4385 21.2677L17.9085 20.6538C18.3865 20.0811 18.8309 19.4809 19.2391 18.8558C19.988 17.6518 20.7131 16.3677 21.4142 15.1397C21.7091 14.626 22.0117 14.0922 22.3146 13.5665H22.3149C22.3863 13.4458 22.4185 13.3053 22.4066 13.1653C22.3707 12.3104 22.3549 11.4476 22.3388 10.617C22.3388 10.1274 22.3388 9.6177 22.3068 9.12022V9.11994C22.2738 8.4089 22.4502 7.70373 22.814 7.09323C23.1775 6.4827 23.7122 5.99421 24.3508 5.68878C25.936 4.83864 27.8219 4.77199 29.4624 5.50822C30.4942 5.9368 31.2946 6.78977 31.6614 7.85182L32.0319 8.82293C32.3665 9.70582 32.7091 10.6167 33.024 11.5319C33.5331 13.1325 33.6048 14.8418 33.231 16.48C33.1235 17.0337 33.0317 17.5877 32.9361 18.1616H33.8207H40.0519C40.752 18.1579 41.4478 18.2705 42.1115 18.4947C43.5129 18.9932 44.5509 20.1975 44.8447 21.6649C44.8447 21.7049 44.8724 21.7693 44.8963 21.8334L44.9361 21.9577L45 22.1906V24.0127L44.8408 24.2255C44.6865 24.8825 44.4167 25.5065 44.0437 26.0675C44.1557 26.4599 44.2238 26.8639 44.2469 27.2715C44.2733 28.3996 43.9426 29.5073 43.3028 30.4339C43.3976 30.7609 43.4576 31.0971 43.4821 31.4372C43.5476 32.651 43.2206 33.8536 42.5497 34.8644C42.6795 35.4867 42.7159 36.1252 42.6573 36.7585C42.5909 37.8553 42.1921 38.905 41.5146 39.7664C40.837 40.6275 39.9135 41.2584 38.8687 41.5742C37.9124 41.8665 36.9156 42.002 35.9165 41.9756H32.06H21.407H21.3631L21.3628 41.9994ZM20.0322 38.7368H20.0319C20.4679 38.8921 20.9282 38.9669 21.3906 38.9574C24.9484 38.9372 28.5619 38.9574 32.0636 38.9574H35.9123C36.5915 38.9826 37.2704 38.9 37.924 38.7127C38.4003 38.5839 38.8233 38.3057 39.1313 37.918C39.4394 37.5302 39.6168 37.0538 39.6373 36.5575C39.6904 36.1351 39.6496 35.7062 39.5178 35.3015C39.3113 34.6918 39.4253 34.0183 39.8205 33.5115C40.259 32.9892 40.4891 32.3213 40.466 31.6374C40.428 31.3841 40.364 31.1352 40.2748 30.895C40.0561 30.249 40.1859 29.5351 40.6172 29.0089C41.0127 28.5579 41.2322 27.9773 41.2347 27.3757C41.2136 27.1798 41.175 26.9863 41.1194 26.7977C41.0755 26.6252 41.0277 26.4324 40.9879 26.2238C40.8484 25.6452 40.9968 25.0343 41.3862 24.5864C41.6938 24.2094 41.8911 23.7536 41.9559 23.2702V22.6521C41.9359 22.5838 41.9161 22.5116 41.8961 22.4315C41.7088 21.693 41.3823 21.4845 41.0994 21.3801C40.7503 21.2687 40.3857 21.2144 40.0197 21.2194H33.8166H31.5417C30.9842 21.2804 30.4328 21.0587 30.0704 20.6276C29.708 20.1965 29.5816 19.6123 29.7328 19.0684C29.7886 18.7271 29.8442 18.3862 29.9001 18.045C30.0115 17.3468 30.1271 16.6243 30.2666 15.906C30.5362 14.7937 30.5017 13.629 30.1671 12.535C29.8723 11.6641 29.5338 10.7773 29.2109 9.92237L28.8363 8.93113H28.8366C28.7601 8.65399 28.5598 8.42837 28.2947 8.32115C27.487 7.9284 26.5413 7.9508 25.7529 8.38134C25.475 8.46783 25.2966 8.74021 25.3266 9.03162C25.3266 9.54138 25.3505 10.055 25.3586 10.5486C25.3586 11.3511 25.3905 12.21 25.4264 13.0327H25.4261C25.4617 13.7541 25.2885 14.4707 24.9281 15.0953C24.6293 15.6129 24.3264 16.1428 24.0357 16.6523C23.3227 17.9044 22.5815 19.2005 21.8086 20.4569C21.3409 21.1867 20.8298 21.8876 20.2787 22.5558L20.0597 22.8288V25.9268C20.0636 30.895 20.0556 34.9843 20.0317 38.7365L20.0322 38.7368Z" fill="#101010"/>
</g>
</g>
</svg>
