<svg width="49" height="48" viewBox="0 0 49 48" fill="none" xmlns="http://www.w3.org/2000/svg">
<g id="noun-parking-lot-4965833 1">
<g id="Group">
<path id="Vector" d="M38.5116 4.22852H10.4668C7.30241 4.22852 4.72852 6.80372 4.72852 9.96685V38.0103C4.72852 41.1747 7.30262 43.7486 10.4668 43.7486H38.5116C41.6748 43.7486 44.2489 41.1734 44.2489 38.0103V9.96685C44.2489 6.80372 41.6748 4.22852 38.5116 4.22852ZM41.8489 38.0114C41.8489 39.8521 40.3513 41.3497 38.5116 41.3497H10.4668C8.62612 41.3497 7.12852 39.8521 7.12852 38.0114V9.96657C7.12852 8.12584 8.62612 6.62824 10.4668 6.62824H38.5116C40.3524 6.62824 41.8489 8.12584 41.8489 9.96657V38.0114Z" fill="#101010"/>
<path id="Vector_2" d="M32.6843 21.9782L31.6932 17.603C31.2767 15.7671 29.4756 14.3281 27.5928 14.3281H21.3877C19.5049 14.3281 17.7035 15.767 17.2873 17.603L16.2962 21.9782C15.3421 22.1306 14.6104 22.9513 14.6104 23.9475V28.2003C14.6104 29.3044 15.5056 30.2006 16.6107 30.2006H16.9852V31.4523C16.9852 32.0044 17.4341 32.4531 17.9859 32.4531H19.6528C20.2049 32.4531 20.6535 32.0041 20.6535 31.4523V30.2006H28.3253V31.4523C28.3253 32.0044 28.7742 32.4531 29.326 32.4531H30.994C31.546 32.4531 31.9947 32.0041 31.9947 31.4523V30.2006H32.3703C33.4744 30.2006 34.3706 29.3041 34.3706 28.2003V23.9475C34.3703 22.9513 33.6385 22.1292 32.6844 21.9782H32.6843ZM18.8191 27.9085C17.8063 27.9085 16.9843 27.0865 16.9843 26.0737C16.9843 25.0609 17.8063 24.2412 18.8191 24.2412C19.8319 24.2412 20.6526 25.062 20.6526 26.0737C20.6539 27.0865 19.8319 27.9085 18.8191 27.9085ZM18.7626 21.9468L19.6267 18.1334C19.7936 17.3978 20.6323 16.7268 21.3871 16.7268H27.5923C28.3457 16.7268 29.1857 17.3975 29.3526 18.132L30.2168 21.9468H18.7626ZM30.1592 27.9085C29.1464 27.9085 28.3243 27.0865 28.3243 26.0737C28.3243 25.0609 29.1464 24.2412 30.1592 24.2412C31.172 24.2412 31.994 25.062 31.994 26.0737C31.994 27.0865 31.172 27.9085 30.1592 27.9085Z" fill="#101010"/>
</g>
</g>
</svg>
