<svg width="49" height="48" viewBox="0 0 49 48" fill="none" xmlns="http://www.w3.org/2000/svg">
<g id="noun-router-1539671 1">
<g id="Group">
<path id="Vector" d="M19.0422 22.337C18.7409 22.337 18.4417 22.2235 18.2143 21.9943C15.0601 18.84 15.0601 13.7092 18.2143 10.5564C18.6724 10.0984 19.4136 10.0984 19.8716 10.5564C20.3296 11.0144 20.3296 11.7557 19.8716 12.2137C17.6334 14.4536 17.6334 18.0967 19.8716 20.3364C20.3296 20.7945 20.3296 21.5375 19.8716 21.9937C19.6409 22.2213 19.3417 22.3367 19.0422 22.3367V22.337Z" fill="#101010"/>
<path id="Vector_2" d="M16.404 24.9769C16.1027 24.9769 15.8035 24.8615 15.5761 24.6324C10.9681 20.0244 10.9681 12.5274 15.5761 7.9192C16.0341 7.46118 16.7754 7.46118 17.2334 7.9192C17.6914 8.37723 17.6914 9.11849 17.2334 9.57645C13.5399 13.2699 13.5399 19.2814 17.2334 22.9745C17.6914 23.4325 17.6914 24.1738 17.2334 24.6318C17.0027 24.8612 16.7035 24.9766 16.404 24.9766V24.9769Z" fill="#101010"/>
<path id="Vector_3" d="M13.8308 27.5487C13.5295 27.5487 13.2303 27.4352 13.0029 27.206C6.97558 21.1804 6.97558 11.3732 13.0029 5.34352C13.4591 4.88549 14.2022 4.88549 14.6602 5.34352C15.1182 5.79973 15.1182 6.54281 14.6602 7.00077C9.54915 12.1154 9.54915 20.4352 14.6602 25.5466C15.1182 26.0046 15.1182 26.7476 14.6602 27.2057C14.4313 27.4352 14.1321 27.5487 13.8308 27.5487Z" fill="#101010"/>
<path id="Vector_4" d="M29.6781 22.337C29.3786 22.337 29.0775 22.2234 28.8484 21.9943C28.3904 21.5363 28.3904 20.7932 28.8484 20.337C31.0884 18.0988 31.0884 14.454 28.8484 12.2143C28.3904 11.7562 28.3904 11.0132 28.8484 10.557C29.3064 10.1008 30.0495 10.1008 30.5075 10.557C33.6599 13.7131 33.6599 18.8421 30.5075 21.9949C30.2786 22.2219 29.9773 22.3373 29.6781 22.3373L29.6781 22.337Z" fill="#101010"/>
<path id="Vector_5" d="M32.3158 24.9772C32.0163 24.9772 31.7152 24.8619 31.4861 24.6327C31.0281 24.1765 31.0281 23.4335 31.4861 22.9755C35.1796 19.282 35.1796 13.2705 31.4861 9.57743C31.0281 9.1194 31.0281 8.37637 31.4861 7.92018C31.9441 7.46215 32.6872 7.46215 33.1452 7.92018C37.7514 12.5282 37.7514 20.0251 33.1452 24.6334C32.9163 24.8622 32.615 24.9776 32.3158 24.9776L32.3158 24.9772Z" fill="#101010"/>
<path id="Vector_6" d="M34.89 27.5489C34.5905 27.5489 34.2895 27.4353 34.0603 27.2062C33.6023 26.7482 33.6023 26.0051 34.0603 25.5471C39.1731 20.4343 39.1731 12.1142 34.0603 7.00126C33.6023 6.54323 33.6023 5.80019 34.0603 5.34401C34.5183 4.88598 35.2614 4.88598 35.7194 5.34401C41.745 11.3696 41.745 21.1768 35.7194 27.2065C35.4906 27.4353 35.1892 27.5489 34.8901 27.5489L34.89 27.5489Z" fill="#101010"/>
<path id="Vector_7" d="M42.447 43.0824H6.58974C4.58436 43.0824 2.95215 41.4502 2.95215 39.4429V35.0892C2.95215 33.0838 4.58436 31.4497 6.58974 31.4497H42.447C44.4506 31.4497 46.0846 33.0819 46.0846 35.0892V39.4429C46.0846 41.4486 44.4524 43.0824 42.447 43.0824ZM6.58974 33.7963C5.87568 33.7963 5.29662 34.3751 5.29662 35.0895V39.4433C5.29662 40.1573 5.87722 40.7364 6.58974 40.7364H42.447C43.1592 40.7364 43.7383 40.1576 43.7383 39.4433V35.0895C43.7383 34.3754 43.1595 33.7963 42.447 33.7963H6.58974Z" fill="#101010"/>
<path id="Vector_8" d="M26.3215 33.7965H22.7144C22.067 33.7965 21.542 33.2718 21.542 32.6241L21.5423 17.4275C21.5423 15.7862 22.8768 14.4517 24.5181 14.4517C26.1593 14.4517 27.4939 15.7862 27.4939 17.4275V32.6241C27.4939 33.2718 26.9692 33.7965 26.3215 33.7965ZM23.8868 31.45H25.1491L25.1494 17.4282C25.1494 17.08 24.8662 16.7968 24.5181 16.7968C24.17 16.7968 23.8868 17.08 23.8868 17.4282L23.8868 31.45Z" fill="#101010"/>
<path id="Vector_9" d="M9.15031 40.2581C7.49994 40.2581 6.1582 38.9164 6.1582 37.266C6.1582 35.6157 7.49994 34.2739 9.15031 34.2739C10.8007 34.2739 12.1424 35.6157 12.1424 37.266C12.1424 38.9164 10.8007 40.2581 9.15031 40.2581ZM9.15031 36.6206C8.79313 36.6206 8.50298 36.9092 8.50298 37.2661C8.50298 37.6233 8.79343 37.9116 9.15031 37.9116C9.50749 37.9116 9.79765 37.623 9.79765 37.2661C9.79795 36.9092 9.50749 36.6206 9.15031 36.6206Z" fill="#101010"/>
<path id="Vector_10" d="M29.6745 38.4314C29.368 38.4314 29.0612 38.3233 28.8448 38.0905C28.6301 37.874 28.5039 37.5854 28.5039 37.2608C28.5039 36.9544 28.6301 36.6476 28.8448 36.4312C29.2956 35.9982 30.0531 35.9982 30.5039 36.4312C30.7204 36.6477 30.8466 36.9541 30.8466 37.2608C30.8466 37.5673 30.7204 37.8741 30.5039 38.0905C30.2895 38.3251 29.9828 38.4314 29.6745 38.4314H29.6745Z" fill="#101010"/>
<path id="Vector_11" d="M33.4254 38.4314C33.1009 38.4314 32.8122 38.3233 32.5958 38.0905C32.3612 37.874 32.2549 37.5676 32.2549 37.2608C32.2549 36.9544 32.3793 36.6476 32.5958 36.4312C33.0287 35.9982 33.8041 35.9982 34.2549 36.4312C34.4714 36.6477 34.5976 36.9541 34.5976 37.2608C34.5976 37.5854 34.4714 37.8741 34.2549 38.0905C34.0224 38.3251 33.7322 38.4314 33.4255 38.4314H33.4254Z" fill="#101010"/>
<path id="Vector_12" d="M37.1606 38.4314C36.8542 38.4314 36.5655 38.3233 36.331 38.0905C36.1145 37.874 35.9883 37.5854 35.9883 37.2608C35.9883 36.9544 36.1145 36.6476 36.3491 36.4312C36.7821 35.9982 37.5574 35.9982 37.9903 36.4312C38.2068 36.6477 38.333 36.9541 38.333 37.2608C38.333 37.5673 38.2231 37.8741 38.0066 38.0905C37.7739 38.3251 37.4834 38.4314 37.1606 38.4314Z" fill="#101010"/>
</g>
</g>
</svg>
