<svg width="49" height="48" viewBox="0 0 49 48" fill="none" xmlns="http://www.w3.org/2000/svg">
<g id="Frame 1171275054">
<g id="Group">
<path id="Vector" d="M44.391 7.64148C44.2595 5.71332 42.7257 4.17985 40.7975 4.04807L27.3886 3.17175C26.2931 3.08402 25.1976 3.52235 24.409 4.26725L4.77751 23.9425C3.2877 25.4323 3.2877 27.8862 4.77751 29.3763L19.0629 43.6617C19.8078 44.4066 20.7719 44.8009 21.7797 44.8009C22.7874 44.8009 23.7515 44.4066 24.4964 43.6617L44.1717 23.9864C44.9603 23.1978 45.3549 22.1023 45.2672 21.0068L44.391 7.64148ZM42.1999 22.0583L22.5247 41.7336C22.1304 42.1279 21.3854 42.1279 20.9908 41.7336L6.70544 27.4482C6.26712 27.0099 6.26712 26.3527 6.70544 25.9143L26.3807 6.23908C26.5999 6.01992 26.8627 5.93219 27.1693 5.93219H27.257L40.666 6.80852C41.1918 6.85223 41.6301 7.29055 41.6738 7.8163L42.5501 21.2253C42.5504 21.5325 42.419 21.8391 42.1998 22.0583L42.1999 22.0583Z" fill="#101010"/>
<path id="Vector_2" d="M24.5405 23.3289H23.2258C22.218 23.3289 21.3854 22.4526 21.4732 21.4007C21.5609 20.4804 22.3935 19.8232 23.3136 19.8232H24.8911C25.4609 19.8232 25.9429 20.2175 26.0744 20.7873C26.1181 20.9187 26.2495 21.0501 26.425 21.0501H28.1776C28.3968 21.0501 28.5282 20.875 28.5282 20.6995C28.3531 18.9469 26.9069 17.5445 25.154 17.4568V15.7041C25.154 15.529 24.9788 15.3535 24.8034 15.3535H23.0507C22.8756 15.3535 22.7001 15.5287 22.7001 15.7041V17.4568C20.5091 17.7637 18.8878 19.7355 19.1067 22.0139C19.3259 24.2049 21.254 25.7824 23.445 25.7824H24.5842C25.592 25.7824 26.4247 26.6588 26.3369 27.7106C26.2055 28.5872 25.3732 29.2445 24.4528 29.2445H22.9189C22.3492 29.2445 21.8672 28.8502 21.7357 28.2804C21.692 28.149 21.5605 28.0176 21.3851 28.0176H19.6324C19.4133 28.0176 19.2818 28.1927 19.2818 28.3682C19.457 30.1208 20.9031 31.5232 22.6561 31.6109V33.3636C22.6561 33.5387 22.8312 33.7142 23.0067 33.7142H24.7593C24.9345 33.7142 25.1099 33.539 25.1099 33.3636V31.5669C26.994 31.26 28.5279 29.8142 28.7033 27.8861C28.9662 25.4322 26.9943 23.3289 24.5405 23.3289Z" fill="#101010"/>
<path id="Vector_3" d="M36.934 11.5146C38.0635 12.644 38.0635 14.4753 36.934 15.6047C35.8045 16.7342 33.9736 16.7342 32.8442 15.6047C31.7147 14.4753 31.7147 12.644 32.8442 11.5146C33.9736 10.3851 35.8045 10.3851 36.934 11.5146Z" fill="#101010"/>
</g>
</g>
</svg>
