<svg width="287" height="313" viewBox="0 0 287 313" fill="none" xmlns="http://www.w3.org/2000/svg">
<path d="M227.621 220.941L287 250.935C272.528 269.742 254.118 284.788 231.771 296.073C209.637 307.358 185.587 313 159.622 313C130.251 313 103.435 305.972 79.1724 291.916C55.1227 277.859 35.8617 259.052 21.3893 235.492C7.12977 211.735 0 185.503 0 156.797C0 135.02 4.15017 114.727 12.4505 95.9193C20.7508 76.9136 32.1372 60.2837 46.6096 46.0294C61.2948 31.5772 78.3211 20.2925 97.6885 12.1755C117.056 4.0585 137.7 0 159.622 0C185.587 0 209.637 5.64231 231.771 16.9269C254.118 28.2116 272.528 43.3567 287 62.3624L227.621 92.3558C218.682 82.457 208.253 74.9339 196.335 69.7865C184.416 64.4412 172.179 61.7685 159.622 61.7685C142.17 61.7685 126.314 66.2229 112.055 75.1319C98.0078 83.8428 86.8343 95.4244 78.5339 109.877C70.4464 124.131 66.4027 139.771 66.4027 156.797C66.4027 173.625 70.5528 189.265 78.8532 203.717C87.1535 217.972 98.327 229.454 112.374 238.165C126.633 246.876 142.383 251.231 159.622 251.231C172.817 251.231 185.374 248.46 197.293 242.916C209.211 237.373 219.32 230.048 227.621 220.941Z" fill="#EBFAEF"/>
</svg>
