<svg width="127" height="167" viewBox="0 0 127 167" fill="none" xmlns="http://www.w3.org/2000/svg">
<g id="Dot">
<rect id="Rectangle 3 Copy 16" x="12.5674" width="4.54723" height="4.54723" rx="2.15371" fill="#D6D6D6"/>
<rect id="Rectangle 3 Copy 15" x="30.7568" width="4.54723" height="4.54723" rx="2.15371" fill="#D6D6D6"/>
<rect id="Rectangle 3 Copy 14" x="48.9463" width="4.54723" height="4.54723" rx="2.15371" fill="#D6D6D6"/>
<rect id="Rectangle 3 Copy 13" x="67.1328" width="4.54723" height="4.54723" rx="2.15371" fill="#D6D6D6"/>
<rect id="Rectangle 3 Copy 12" x="85.3213" width="4.54723" height="4.54723" rx="2.15371" fill="#D6D6D6"/>
<rect id="Rectangle 3 Copy 11" x="103.511" width="4.54723" height="4.54723" rx="2.15371" fill="#D6D6D6"/>
<rect id="Rectangle 3 Copy 10" x="121.7" width="4.54723" height="4.54723" rx="2.15371" fill="#D6D6D6"/>
<rect id="Rectangle 3 Copy 26" x="12.5674" y="18.189" width="4.54723" height="4.54723" rx="2.15371" fill="#D6D6D6"/>
<rect id="Rectangle 3 Copy 25" x="30.7568" y="18.189" width="4.54723" height="4.54723" rx="2.15371" fill="#D6D6D6"/>
<rect id="Rectangle 3 Copy 24" x="48.9463" y="18.189" width="4.54723" height="4.54723" rx="2.15371" fill="#D6D6D6"/>
<rect id="Rectangle 3 Copy 23" x="67.1328" y="18.189" width="4.54723" height="4.54723" rx="2.15371" fill="#D6D6D6"/>
<rect id="Rectangle 3 Copy 22" x="85.3213" y="18.189" width="4.54723" height="4.54723" rx="2.15371" fill="#D6D6D6"/>
<rect id="Rectangle 3 Copy 21" x="103.511" y="18.189" width="4.54723" height="4.54723" rx="2.15371" fill="#D6D6D6"/>
<rect id="Rectangle 3 Copy 20" x="121.7" y="18.189" width="4.54723" height="4.54723" rx="2.15371" fill="#D6D6D6"/>
<rect id="Rectangle 3 Copy 36" x="12.5674" y="36.3779" width="4.54723" height="4.54723" rx="2.15371" fill="#D6D6D6"/>
<rect id="Rectangle 3 Copy 35" x="30.7568" y="36.3779" width="4.54723" height="4.54723" rx="2.15371" fill="#D6D6D6"/>
<rect id="Rectangle 3 Copy 34" x="48.9463" y="36.3779" width="4.54723" height="4.54723" rx="2.15371" fill="#D6D6D6"/>
<rect id="Rectangle 3 Copy 33" x="67.1328" y="36.3779" width="4.54723" height="4.54723" rx="2.15371" fill="#D6D6D6"/>
<rect id="Rectangle 3 Copy 32" x="85.3213" y="36.3779" width="4.54723" height="4.54723" rx="2.15371" fill="#D6D6D6"/>
<rect id="Rectangle 3 Copy 31" x="103.511" y="36.3779" width="4.54723" height="4.54723" rx="2.15371" fill="#D6D6D6"/>
<rect id="Rectangle 3 Copy 30" x="121.7" y="36.3779" width="4.54723" height="4.54723" rx="2.15371" fill="#D6D6D6"/>
<rect id="Rectangle 3 Copy 46" x="12.5674" y="54.5669" width="4.54723" height="4.54723" rx="2.15371" fill="#D6D6D6"/>
<rect id="Rectangle 3 Copy 45" x="30.7568" y="54.5669" width="4.54723" height="4.54723" rx="2.15371" fill="#D6D6D6"/>
<rect id="Rectangle 3 Copy 44" x="48.9463" y="54.5669" width="4.54723" height="4.54723" rx="2.15371" fill="#D6D6D6"/>
<rect id="Rectangle 3 Copy 43" x="67.1328" y="54.5669" width="4.54723" height="4.54723" rx="2.15371" fill="#D6D6D6"/>
<rect id="Rectangle 3 Copy 42" x="85.3213" y="54.5669" width="4.54723" height="4.54723" rx="2.15371" fill="#D6D6D6"/>
<rect id="Rectangle 3 Copy 41" x="103.511" y="54.5669" width="4.54723" height="4.54723" rx="2.15371" fill="#D6D6D6"/>
<rect id="Rectangle 3 Copy 40" x="121.7" y="54.5669" width="4.54723" height="4.54723" rx="2.15371" fill="#D6D6D6"/>
<rect id="Rectangle 3 Copy 56" x="12.5674" y="72.7559" width="4.54723" height="4.54723" rx="2.15371" fill="#D6D6D6"/>
<rect id="Rectangle 3 Copy 55" x="30.7568" y="72.7559" width="4.54723" height="4.54723" rx="2.15371" fill="#D6D6D6"/>
<rect id="Rectangle 3 Copy 54" x="48.9463" y="72.7559" width="4.54723" height="4.54723" rx="2.15371" fill="#D6D6D6"/>
<rect id="Rectangle 3 Copy 53" x="67.1328" y="72.7559" width="4.54723" height="4.54723" rx="2.15371" fill="#D6D6D6"/>
<rect id="Rectangle 3 Copy 52" x="85.3213" y="72.7559" width="4.54723" height="4.54723" rx="2.15371" fill="#D6D6D6"/>
<rect id="Rectangle 3 Copy 51" x="103.511" y="72.7559" width="4.54723" height="4.54723" rx="2.15371" fill="#D6D6D6"/>
<rect id="Rectangle 3 Copy 50" x="121.7" y="72.7559" width="4.54723" height="4.54723" rx="2.15371" fill="#D6D6D6"/>
<rect id="Rectangle 3 Copy 66" x="12.5674" y="90.9448" width="4.54723" height="4.54723" rx="2.15371" fill="#D6D6D6"/>
<rect id="Rectangle 3 Copy 65" x="30.7568" y="90.9448" width="4.54723" height="4.54723" rx="2.15371" fill="#D6D6D6"/>
<rect id="Rectangle 3 Copy 64" x="48.9463" y="90.9443" width="4.54723" height="4.54723" rx="2.15371" fill="#D6D6D6"/>
<rect id="Rectangle 3 Copy 63" x="67.1328" y="90.9443" width="4.54723" height="4.54723" rx="2.15371" fill="#D6D6D6"/>
<rect id="Rectangle 3 Copy 62" x="85.3213" y="90.9448" width="4.54723" height="4.54723" rx="2.15371" fill="#D6D6D6"/>
<rect id="Rectangle 3 Copy 61" x="103.511" y="90.9448" width="4.54723" height="4.54723" rx="2.15371" fill="#D6D6D6"/>
<rect id="Rectangle 3 Copy 60" x="121.7" y="90.9443" width="4.54723" height="4.54723" rx="2.15371" fill="#D6D6D6"/>
<rect id="Rectangle 3 Copy 76" x="12.5674" y="109.134" width="4.54723" height="4.54723" rx="2.15371" fill="#D6D6D6"/>
<rect id="Rectangle 3 Copy 83" x="12.5674" y="126.676" width="4.54723" height="4.54723" rx="2.15371" fill="#D6D6D6"/>
<rect id="Rectangle 3 Copy 93" x="12.5674" y="144.219" width="4.54723" height="4.54723" rx="2.15371" fill="#D6D6D6"/>
<rect id="Rectangle 3 Copy 103" x="12.5674" y="161.761" width="4.54723" height="4.54723" rx="2.15371" fill="#D6D6D6"/>
<rect id="Rectangle 3 Copy 75" x="30.7568" y="109.134" width="4.54723" height="4.54723" rx="2.15371" fill="#D6D6D6"/>
<rect id="Rectangle 3 Copy 84" x="30.7568" y="126.676" width="4.54723" height="4.54723" rx="2.15371" fill="#D6D6D6"/>
<rect id="Rectangle 3 Copy 94" x="30.7568" y="144.219" width="4.54723" height="4.54723" rx="2.15371" fill="#D6D6D6"/>
<rect id="Rectangle 3 Copy 104" x="30.7568" y="161.761" width="4.54723" height="4.54723" rx="2.15371" fill="#D6D6D6"/>
<rect id="Rectangle 3 Copy 74" x="48.9463" y="109.134" width="4.54723" height="4.54723" rx="2.15371" fill="#D6D6D6"/>
<rect id="Rectangle 3 Copy 85" x="48.9463" y="126.676" width="4.54723" height="4.54723" rx="2.15371" fill="#D6D6D6"/>
<rect id="Rectangle 3 Copy 95" x="48.9463" y="144.219" width="4.54723" height="4.54723" rx="2.15371" fill="#D6D6D6"/>
<rect id="Rectangle 3 Copy 105" x="48.9463" y="161.761" width="4.54723" height="4.54723" rx="2.15371" fill="#D6D6D6"/>
<rect id="Rectangle 3 Copy 73" x="67.1328" y="109.134" width="4.54723" height="4.54723" rx="2.15371" fill="#D6D6D6"/>
<rect id="Rectangle 3 Copy 86" x="67.1328" y="126.676" width="4.54723" height="4.54723" rx="2.15371" fill="#D6D6D6"/>
<rect id="Rectangle 3 Copy 96" x="67.1328" y="144.219" width="4.54723" height="4.54723" rx="2.15371" fill="#D6D6D6"/>
<rect id="Rectangle 3 Copy 106" x="67.1328" y="161.761" width="4.54723" height="4.54723" rx="2.15371" fill="#D6D6D6"/>
<rect id="Rectangle 3 Copy 72" x="85.3213" y="109.134" width="4.54723" height="4.54723" rx="2.15371" fill="#D6D6D6"/>
<rect id="Rectangle 3 Copy 87" x="85.3213" y="126.676" width="4.54723" height="4.54723" rx="2.15371" fill="#D6D6D6"/>
<rect id="Rectangle 3 Copy 97" x="85.3213" y="144.219" width="4.54723" height="4.54723" rx="2.15371" fill="#D6D6D6"/>
<rect id="Rectangle 3 Copy 107" x="85.3213" y="161.761" width="4.54723" height="4.54723" rx="2.15371" fill="#D6D6D6"/>
<rect id="Rectangle 3 Copy 71" x="103.511" y="109.134" width="4.54723" height="4.54723" rx="2.15371" fill="#D6D6D6"/>
<rect id="Rectangle 3 Copy 88" x="103.511" y="126.676" width="4.54723" height="4.54723" rx="2.15371" fill="#D6D6D6"/>
<rect id="Rectangle 3 Copy 98" x="103.511" y="144.219" width="4.54723" height="4.54723" rx="2.15371" fill="#D6D6D6"/>
<rect id="Rectangle 3 Copy 108" x="103.511" y="161.761" width="4.54723" height="4.54723" rx="2.15371" fill="#D6D6D6"/>
<rect id="Rectangle 3 Copy 70" x="121.7" y="109.134" width="4.54723" height="4.54723" rx="2.15371" fill="#D6D6D6"/>
<rect id="Rectangle 3 Copy 89" x="121.7" y="126.676" width="4.54723" height="4.54723" rx="2.15371" fill="#D6D6D6"/>
<rect id="Rectangle 3 Copy 99" x="121.7" y="144.219" width="4.54723" height="4.54723" rx="2.15371" fill="#D6D6D6"/>
<rect id="Rectangle 3 Copy 109" x="121.7" y="161.761" width="4.54723" height="4.54723" rx="2.15371" fill="#D6D6D6"/>
</g>
</svg>
